# xmcd CD database file
#
# Track frame offsets:
#	150
#	10328
#	36087
#	55730
#	77310
#	96191
#	116386
#	139656
#	149217
#	169752
#	186565
#	213171
#	220765
#	240422
#
# Disc length: 3864 seconds
#
# Revision: 0
# Processed by: cddbd v1.5.2PL0 Copyright (c) Steve Scherf et al.
# Submitted via: CDex 1.51
#
DISCID=bf0f160e
DTITLE=Mark Selby - And The Horse He Rode In On
DYEAR=2006
DGENRE=Blues
TTITLE0=Here's To You...
TTITLE1=Down In The Flood
TTITLE2=Deep Pockets
TTITLE3=Leveler, Reveler
TTITLE4=A Whiter Shade Of Pale
TTITLE5=There`s Your Trouble
TTITLE6=Last Goodbye
TTITLE7=Peanut Butter, Jelly and A Saucy Little Beaujolais
TTITLE8=Up To No Good - Slide Wire
TTITLE9=The Scheme Of Things
TTITLE10=Blue On Black
TTITLE11=Know The Blues
TTITLE12=Little Wing
TTITLE13=Sometimes I Feel Like Goin`Home
EXTD=YEAR: 2006
EXTT0=
EXTT1=
EXTT2=
EXTT3=
EXTT4=
EXTT5=
EXTT6=
EXTT7=
EXTT8=
EXTT9=
EXTT10=
EXTT11=
EXTT12=
EXTT13=
PLAYORDER=
